<svg version="1" xmlns="http://www.w3.org/2000/svg" viewBox="0 0 503 102.8"><path fill="#80A4A3" d="M26.9.6v40.1h-.6l-5.5-10.1L4.9.6H0v42.9h2.9V3.8h.5l5.2 9.9 16 29.8h5V.6z"/><path fill="#769E9C" d="M124.6 0C114.3 0 108 6.4 108 22.3c0 15.7 6.1 21.9 16.1 21.9 10.3 0 16.6-6.4 16.6-22.3.1-15.8-6-21.9-16.1-21.9m-.1 40.7c-7.7 0-12.6-4.7-12.6-18.8 0-14 4.9-18.4 12.5-18.4 7.7 0 12.6 4.7 12.6 18.8 0 14-4.9 18.4-12.5 18.4"/><path fill="#6D9796" d="M231.4.6h-5l-9.9 30.9c-.2.9-2.4 7.5-2.6 8.3h-.2c-.1-.9-2.3-7.5-2.6-8.3L201.2.6h-5.3l14 42.9h7.5l14-42.9z"/><path fill="#64918F" d="M298.9.6h-22.8v42.9h23.6v-4.6h-18.4V24.2h15.4v-4.9h-15.4v-14h17.6z"/><path fill="#5B8B89" d="M373.3.6h-9.6L352.6 29h-.3L341.2.6h-9.8v42.9h5.8V7.9h.4l11.7 29.8h5.9c2.4-5.9 9.3-23.8 11.8-29.8h.3v35.6h6V.6z"/><path fill="#487E7C" d="M461.5.6H437v42.9h25.3v-6.4h-17.6V25h14.5v-6.4h-14.5V7h16.8z"/><path fill="#528482" d="M409 .5h-14V43.6h13.5C422 43.7 424 35.7 424 31c0-5.2-2.7-8.8-7.3-9.8 3.2-1.4 5.2-4.9 5.2-9.4 0-5.1-2.2-11.3-12.9-11.3m-7.2 18.3V6.5h6.2c4.7 0 7.1 2 7.1 6 0 4.3-2.2 6.3-7 6.3h-6.3zm0 18.8V24.9h7.2c5.3 0 8 2.2 8 6.4 0 4.3-2.4 6.3-7.7 6.3h-7.5z"/><path fill="#3F7876" d="M490.4 14c0 4.2-2 6-6.8 6h-3.5V8.2h3.4c4.7 0 6.9 1.9 6.9 5.8m5.2 16.5c-1.6-2.7-2.8-4.3-4.3-5.3 5.1-1.4 8.1-5.7 8.1-11.8 0-8.6-4.9-12.7-14.9-12.7h-13v42.9h8.7V27.4h.9c2.1 0 3.3.7 4.2 2.3l7.3 13.8H503l-7.4-13z"/><path fill="#979585" d="M207.9 76.8h-1.7l-4.9 14.8-1.1 3.4h-.1l-1.1-3.4-4.9-14.8h-1.8l6.4 19.4h2.8zM215.9 81c-4.4 0-6.1 3.2-6.1 7.8 0 4.5 1.5 7.6 5.9 7.6s6.1-3.2 6.1-7.8c0-4.5-1.6-7.6-5.9-7.6m0 13.9c-3.1 0-4.4-2.1-4.4-6.3 0-4.1 1.2-6.1 4.3-6.1 3.1 0 4.4 2 4.4 6.3-.1 4.1-1.2 6.1-4.3 6.1M231.7 81c-1.7 0-3 .8-3.7 1.7h-.1l-.4-1.5h-1.2v14.9h1.6V84.8c.7-1.5 2.2-2.1 3.7-2.1.6 0 1.1.1 1.7.2v-1.7c-.3-.1-.8-.2-1.6-.2M241.3 81c-3.2 0-5 1.9-5 4 0 5.1 7.7 3.5 7.7 7.2 0 1.4-1.2 2.7-3.5 2.7-1.7 0-3.1-.6-4.1-1.6l-1.1 1.3c1 1 2.8 1.8 5.1 1.8 3.4 0 5.1-2.1 5.1-4.2 0-5.1-7.7-3.6-7.7-7.3 0-1.3 1-2.5 3.3-2.5 1.1 0 2.3.4 3.1 1.2l1.1-1.2c-.8-.8-2.4-1.4-4-1.4M255.6 81c-4.4 0-6.1 3.2-6.1 7.8 0 4.5 1.6 7.6 5.9 7.6 4.4 0 6.1-3.2 6.1-7.8 0-4.5-1.5-7.6-5.9-7.6m0 13.9c-3.1 0-4.4-2.1-4.4-6.3 0-4.1 1.2-6.1 4.3-6.1 3.1 0 4.4 2 4.4 6.3 0 4.1-1.2 6.1-4.3 6.1M271.5 81c-1.7 0-3 .8-3.7 1.7h-.1l-.4-1.5h-1.2v14.9h1.6V84.8c.7-1.5 2.2-2.1 3.7-2.1.6 0 1.1.1 1.7.2v-1.7c-.4-.1-.9-.2-1.6-.2M282.5 81.1c-4.9 0-7.3 3.2-7.3 8.1 0 5 2.6 7 5.6 7 2.1 0 3.4-.9 3.8-1.3h.1v1.6c0 2.8-1.2 4.3-4 4.3-2.1 0-3.2-.7-4-1.3l-.9 1.4c.6.5 2 1.4 4.6 1.4 3.7 0 6-1.9 6-5.8V81.9c-.8-.4-2.2-.8-3.9-.8m-1.1 13.7c-2.2 0-4.4-1.2-4.4-5.8 0-4.3 2.1-6.3 5.2-6.3 1.1 0 2 .2 2.7.5v10c-.8 1-2.3 1.6-3.5 1.6M297.1 81c-3 0-6.1 2-6.1 7.6s2.3 7.7 6.4 7.7c1.9 0 3.5-.6 4.5-1.2l-.7-1.3c-.7.5-2 1.1-3.5 1.1-3.1 0-4.8-1.4-5-5.5h9.6c.1-.9.1-1.8.1-2.5 0-3.6-1.8-5.9-5.3-5.9m-4.5 6.9c.2-4.1 2.3-5.3 4.3-5.3 2.6 0 3.8 1.6 3.8 4.3v1h-8.1zM317.2 73.1h1.4v29.6h-1.4zM339.6 76.8h-5.7v19.4h5.8c4.2 0 6.2-2 6.2-5.4 0-2.8-1.5-4.3-3.6-4.5v-.1c1.6-.4 2.6-2 2.6-4.5 0-3.6-2.4-4.9-5.3-4.9m-4.1 8.9v-7.4h3.7c2.4 0 4 .9 4 3.5 0 2.8-1.3 3.8-3.8 3.8h-3.9zm0 9v-7.5h4.1c2.5 0 4.5.8 4.5 3.8 0 2.7-1.4 3.7-4.4 3.7h-4.2zM356.1 81c-3 0-6.1 2-6.1 7.6s2.3 7.7 6.4 7.7c1.9 0 3.5-.6 4.5-1.2l-.7-1.3c-.7.5-2 1.1-3.5 1.1-3.1 0-4.8-1.4-5-5.5h9.6c.1-.9.1-1.8.1-2.5-.1-3.6-1.9-5.9-5.3-5.9m-4.5 6.9c.2-4.1 2.3-5.3 4.3-5.3 2.6 0 3.8 1.6 3.8 4.3v1h-8.1zM370.7 81c-3.2 0-5 1.9-5 4 0 5.1 7.7 3.5 7.7 7.2 0 1.4-1.2 2.7-3.5 2.7-1.7 0-3.1-.6-4.1-1.6l-1.1 1.3c1 1 2.8 1.8 5.1 1.8 3.4 0 5.1-2.1 5.1-4.2 0-5.1-7.7-3.6-7.7-7.3 0-1.3 1-2.5 3.3-2.5 1.1 0 2.3.4 3.1 1.2l1.1-1.2c-.9-.8-2.5-1.4-4-1.4M382.2 77.3H381l-.4 4-2.3.3v1h2.3v9.8c0 2.6 1.2 3.9 3.7 3.9 1.6 0 2.5-.3 3.1-.6l-.5-1.4c-.3.2-1 .5-2.4.5s-2.3-.7-2.3-2.6v-9.6h4.2v-1.4h-4.2v-3.9zM395.8 81.1c-3 0-4.4 1.7-4.9 2.4l1.2 1c.5-.7 1.5-1.9 3.6-1.9 2.2 0 3.4.8 3.4 3.4v1.7h-.3c-5.3 0-8.4 1.6-8.4 4.8 0 2 1.5 3.9 4.3 3.9 2.6 0 3.8-1.2 4.6-2.1h.1c.3 1 1.2 1.9 2.7 1.9.2 0 .4 0 .4-.1V95h-.4c-1.1 0-1.6-1-1.6-2.5v-7c.1-3-1.7-4.4-4.7-4.4m-.8 14c-1.9 0-3-1.2-3-2.7 0-2.4 2.9-3.3 6.5-3.3h.6v3.7c-.7 1.1-2.2 2.3-4.1 2.3M408.5 77.3h-1.2l-.4 4-2.3.3v1h2.3v9.8c0 2.6 1.2 3.9 3.7 3.9 1.6 0 2.5-.3 3.1-.6l-.5-1.4c-.3.2-1 .5-2.4.5s-2.3-.7-2.3-2.6v-9.6h4.2v-1.4h-4.2v-3.9zM420 77.3h-1.2l-.4 4-2.3.3v1h2.3v9.8c0 2.6 1.2 3.9 3.7 3.9 1.6 0 2.5-.3 3.1-.6l-.5-1.4c-.3.2-1 .5-2.4.5s-2.3-.7-2.3-2.6v-9.6h4.2v-1.4H420v-3.9zM439.4 81.3h-1.6v9.6c0 2.9-1.9 4.1-4.1 4.1-2.5 0-3.6-1.3-3.6-3.9v-9.8h-1.6v10.3c.1 3.3 1.9 5 4.9 5 2.7 0 4-1.5 4.3-1.9h.1l.4 1.6h1.2v-15zM450.6 81c-2.5 0-4 1.5-4.3 1.9h-.1l-.4-1.6h-1.2v14.9h1.6V85.4c.6-1.6 2.1-2.9 4.2-2.9 2.3 0 3.5 1.4 3.5 3.8v9.9h1.6V85.9c-.1-3.3-1.9-4.9-4.9-4.9M467.1 81.1c-4.9 0-7.3 3.2-7.3 8.1 0 5 2.6 7 5.6 7 2.1 0 3.4-.9 3.8-1.3h.1v1.6c0 2.8-1.2 4.3-4 4.3-2.1 0-3.2-.7-4-1.3l-.9 1.4c.6.5 2 1.4 4.6 1.4 3.7 0 6-1.9 6-5.8V81.9c-.8-.4-2.2-.8-3.9-.8M466 94.8c-2.2 0-4.4-1.2-4.4-5.8 0-4.3 2.1-6.3 5.2-6.3 1.1 0 2 .2 2.7.5v10c-.8 1-2.3 1.6-3.5 1.6M481.7 81c-3 0-6.1 2-6.1 7.6s2.3 7.7 6.4 7.7c1.9 0 3.5-.6 4.5-1.2l-.7-1.3c-.7.5-2 1.1-3.5 1.1-3.1 0-4.8-1.4-5-5.5h9.6c.1-.9.1-1.8.1-2.5 0-3.6-1.8-5.9-5.3-5.9m-4.5 6.9c.2-4.1 2.3-5.3 4.3-5.3 2.6 0 3.8 1.6 3.8 4.3v1h-8.1zM497.6 81c-2.5 0-4 1.5-4.3 1.9h-.1l-.4-1.6h-1.2v14.9h1.6V85.4c.6-1.6 2.1-2.9 4.2-2.9 2.3 0 3.5 1.4 3.5 3.8v9.9h1.6V85.9c-.1-3.3-2-4.9-4.9-4.9"/></svg>