<svg xmlns="http://www.w3.org/2000/svg" viewBox="0 0 1200 1200"><defs><linearGradient x1="-824.5" y1="372.53" gradientTransform="translate(-357.19 38.354) scale(1.0932)" x2="51.64" gradientUnits="userSpaceOnUse" y2="85.861" id="a"><stop offset="0" stop-color="#fd5"/><stop offset="1" stop-opacity="0" stop-color="#fd5"/></linearGradient></defs><ellipse fill="#fff" cx="-773.55" cy="257.42" transform="matrix(-.4321 -.90183 .92644 -.37644 0 0)" ry="519.64" rx="495.82"/><ellipse rx="495.82" ry="519.64" transform="matrix(-.4321 -.90183 .92644 -.37644 0 0)" cy="257.42" cx="-773.55" fill="url(#a)"/><path d="M598.98 6.29a613.93 613.93 0 0 0-16.998.227c-335.43 9.109-599.58 306.59-569.99 641.92 25.664 290.93 265.56 522.13 555 534.89 166.78 7.351 312.75-45.666 435.01-158 97.701-89.766 164.63-219.6 181.36-351.8 45.1-356.95-228.73-667.06-584.42-667.24zm-.72 220.84c177.22-.28 338.01 128.4 365.14 314.4 31.04 212.75-124.06 405.91-338.42 421.48C447.6 975.89 285.75 859 242.05 686.44c-47.38-187.07 56.46-378.47 238.62-439.81 39.164-13.187 78.772-19.434 117.59-19.495zm459.53 479.42c4.17.145 8.424 1.627 12.18 4.723 11.771 9.703 9.196 28.398-4.71 34.21-13.564 5.666-28.124-3.865-28.192-18.454-.058-12.48 10.065-20.847 20.723-20.479zm-917.96.49c3.212-.074 6.371.618 9.068 2.2 13.251 7.773 14.317 25.554 2.041 34.078-17.055 11.843-38.336-7.394-28.736-25.977 3.236-6.264 10.56-10.137 17.627-10.301z"/><path fill="#fff" d="M581.67 1108.5c6.188-19.921 4.162-18.5 26.383-18.5 21.404 0 18.672-1.827 25.409 16.998 6.24 17.432 5.92 17.002 12.585 17.002 7.205 0 7.198.43.339-18.632a6029.051 6029.051 0 0 1-7.834-21.868c-2.728-7.735-19.632-54.294-22.069-60.789l-2.172-5.79-8.048.29-8.049.289-2.254 7c-2.41 7.484-14.146 43.987-24.903 77.454-8.068 25.102-8.03 23.213-.466 22.844l6.108-.298 4.97-16z"/><path d="M590.87 1079.6c-.302-.787 1.905-9 4.905-18.25s6.24-20.105 7.2-24.12c2.175-9.09 4.315-9.505 6.34-1.23.735 2.998 4.222 13.432 7.75 23.188 8.169 22.582 8.665 20.407-4.833 21.185-17.163.988-20.735.86-21.362-.774z"/><path fill="#fff" d="M526.12 1118.3c-.275-.963-.787-8.95-1.137-17.75-.725-18.207-2.221-24.977-6.63-29.998-3.048-3.471-3.308-6.502-.559-6.502 10.281 0 22.691-15.314 22.691-28 0-19.364-14.918-28.685-53.642-33.516-6.476-.808-4.862-5.34-14.81 41.57-4.717 22.246-9.303 43.668-10.19 47.605-2.97 13.18-2.694 14.604 3.116 16.054 6.376 1.593 5.65 2.98 10.564-20.212 5.414-25.56 5.131-24.825 9.218-24.008 24.28 4.857 26.856 8.121 27.768 35.164.619 18.354 1.056 19.908 5.801 20.634 6.58 1.007 8.33.774 7.811-1.04z"/><path d="M493.13 1056.1c-11.427-2.724-11.004-.37-4.95-27.564 3.771-16.939 3.087-16.273 14.485-14.092 16.837 3.221 24.819 10.326 24.819 22.092 0 16.341-14.127 24.386-34.354 19.564z"/><path fill="#fff" d="M707.33 1114.9c1.732-.604 3.15-1.591 3.15-2.195 0-1.785-15.795-60.24-19.548-72.347-5.27-17-4.99-17.109 8.321-3.195 12.042 12.587 64.831 61.835 66.28 61.835 1.893 0 10.424-2.252 11.223-2.963.772-.687-25.828-101.87-27.148-103.27-.874-.925-8.262 1.022-9.743 2.568-1.182 1.233 15.157 62.93 21.078 79.593 2.644 7.44.302 6.707-8.07-2.526-6.537-7.21-37.223-36.184-61.533-58.1l-5.638-5.083-6.362 1.764c-7.423 2.058-7.595 2.673-4.084 14.669 2.153 7.355 6.439 23.15 11.084 40.846 13.636 51.952 12.865 49.5 15.56 49.5 1.254 0 3.697-.495 5.43-1.098zm-291.13-33.4a1833.9 1833.9 0 0 0 2.264-21.773c.577-5.97 2.616-25.321 4.532-43 4.415-40.742 4.735-36.139-2.76-39.686-3.438-1.626-6.758-2.957-7.378-2.958-.974 0-15.348 14.785-67.822 69.763-12.1 12.678-12.045 12.433-3.45 15.27l4.204 1.387 12.318-12.83c7.125-7.42 12.857-12.607 13.598-12.303 6.708 2.75 32.584 15.22 33.628 16.207 1.103 1.042 1.143 2.886.217 10.14-3.34 26.166-3.393 25.714 3.434 29.218 5.682 2.916 5.867 2.673 7.215-9.437z"/><path d="M392.48 1034.6c-16.659-7.86-16.519-7.09-3.701-20.28 5.745-5.912 13.48-14.236 17.188-18.499 9.637-11.077 9.374-11.427 6.607 8.81-1.049 7.667-2.225 18.215-2.614 23.44-1.136 15.247.054 14.802-17.48 6.529z"/><path fill="#fff" d="M863.48 1053.7c0-.72-10.125-19.577-22.5-41.902s-22.5-41.201-22.5-41.945c0-.744 5.619-4.494 12.487-8.331l13.635-7.62c1.456-.815.48-4.893-1.864-7.787l-1.767-2.182-25.495 14.202c-14.023 7.81-29.202 16.195-33.733 18.63-9.653 5.19-9.793 5.353-7.87 9.073 2.865 5.539 3.178 5.494 17.415-2.495 7.32-4.107 13.878-7.249 14.575-6.982.697.268 11.31 18.643 23.583 40.835s22.746 40.897 23.271 41.567c1.18 1.505 10.763-3.002 10.763-5.062zm-561.56-38.3c10.874-3.837 16.177-9.043 42.493-41.716 22.57-28.024 21.223-25.548 16.108-29.6-5.09-4.03-5.373-3.909-13.087 5.634a5326.373 5326.373 0 0 1-12.453 15.336 51480.478 51480.478 0 0 0-14.814 18.17c-21.286 26.121-38.32 30.369-52.611 13.12-11.618-14.023-8.082-23.51 23.07-61.888 24.719-30.453 23.24-27.859 18.28-32.056-5.506-4.658-4.064-5.85-26.464 21.854-27.633 34.174-29.813 37.624-31.986 50.624-4.289 25.656 26.003 49.505 51.467 40.52zm641.94-17.61a3753.528 3753.528 0 0 1 21.376-19.118c13.475-11.956 13.396-11.825 9.563-15.827-3.68-3.84-2.765-4.344-18.992 10.445-7.997 7.287-15.684 14.126-17.084 15.196l-2.546 1.946-5.095-5.48c-18.83-20.25-21.785-24-20.42-25.898.728-1.012 7.511-7.337 15.074-14.057 15.079-13.398 14.91-13.137 11.063-17.152-3.55-3.704-3.528-3.71-10.65 3.017-12.796 12.088-23.753 21.24-24.717 20.645-1.736-1.073-22.946-24.693-22.946-25.553 0-.452 7.198-7.255 15.995-15.118 8.797-7.862 15.998-14.599 16-14.969.01-1.468-5.333-6.905-6.51-6.625-2.833.673-41.512 36.33-41.13 37.916.47 1.963 69.682 78.882 70.978 78.882.503 0 5.022-3.712 10.041-8.25z"/><path fill="#006cb4" d="M669.54 350.03c-137.16 0-260.67 125.67-282.23 287.16-15.365 115.1 34.251 192.55 126.67 197.73 88.464 4.956 161.75-34.609 219.69-118.6 10.729-15.554 10.814-13.626-1.152-26.037-13.73-14.24-13.758-14.236-28.068 3.75-49.985 62.825-90.766 88.678-139.46 88.414-57.912-.314-81.467-36.183-81.496-124.1-.005-14.119-.804-13.045 11.422-15.377 151.96-28.98 256.05-82.84 283.6-146.73 32.68-75.8-19.79-146.2-108.97-146.2zm-25.979 39.111c9.483-.172 18.711 1.731 27.459 5.906 29.926 14.282 30.428 72.371.982 113.48-29.31 40.923-76.976 68.312-160.95 92.48-23.59 6.788-23.572 6.785-23.572 3.964 0-6.785 9.19-43.883 15.488-62.52 30.731-90.937 89.381-152.38 140.59-153.31z"/><path fill="#fff" d="M218.55 920.93c10.689-7.76 19.824-14.471 20.3-14.916.668-.624-14.237-22.738-18.457-27.385-.929-1.022-7.903 3.32-7.882 4.908.01.55 2.48 4.366 5.494 8.48 7.035 9.603 7.47 8.41-6.917 18.944-14.73 10.784-14.798 10.793-21.972 3.044-23.753-25.656-17.98-57.265 13.316-72.916 24.36-12.183 49.799-.426 62.085 28.694 3.26 7.729 3.383 7.814 8.288 5.765 4.606-1.925 4.617-3.11.117-12.501-17.776-37.093-54.157-49.468-84.925-28.89-35.29 23.605-34.366 63.993 2.175 95.062 8.586 7.3 5.77 8.123 28.379-8.289zm812.65-18.67l17.244-23.727-3.075-2.808c-4.485-4.096-4.837-3.809-18.776 15.308-9.124 12.513-13.314 17.485-14.702 17.447-2.38-.065-31.439-21.116-31.425-22.765.006-.65 5.18-8.272 11.5-16.937 12.894-17.68 12.537-16.863 8.586-19.677-4.554-3.243-4.938-2.928-17.023 13.962-6.286 8.784-11.97 15.97-12.632 15.97-2.367 0-26.936-18.572-27.19-20.552-.15-1.172 4.531-8.502 11.75-18.402 13.749-18.85 13.05-17.144 8.454-20.649-4.289-3.271-1.982-5.546-21.423 21.123l-16.007 21.958 2.238 2.12c1.81 1.717 26.217 19.537 80.185 58.549 2.17 1.57 4.196 2.843 4.5 2.83.304-.013 8.313-10.7 17.797-23.75zM94.23 608.54c.37-16.541-.303-15.497 10.023-15.515 4.802-.008 23.509.515 41.572 1.162 38.512 1.381 34.623 2.929 34.644-13.789.019-14.78 5.43-12.928-41.985-14.37-20.625-.627-38.551-1.349-39.835-1.604-2.328-.463-2.334-.504-2.041-14.174l.293-13.71-6.958-.784c-3.827-.431-8.984-.656-11.46-.5l-4.5.284-.706 17c-3.178 76.439-4.494 67.67 10.106 67.282l10.601-.283.247-11zm966.17 2.87c9.462-3.936 15.058-11.499 21.382-28.898 4.956-13.635 6.14-15.85 9.402-17.597 8.975-4.803 14.914 10.189 10.868 27.435-2.422 10.323-3.365 9.335 12.164 12.74 7.173 1.572 7.814 1.112 9.643-6.93 13.587-59.739-45.174-88.888-64-31.749-4.785 14.521-7.678 18.627-13.125 18.627-10.336 0-13.637-21.068-6.154-39.282.629-1.53.88-3.044.56-3.365-.977-.977-19.878-4.493-21.273-3.958-3.926 1.506-6.718 27.308-4.503 41.605 3.95 25.483 24.603 39.87 45.036 31.372zM189.52 504.79c5.38-17.255 7.268-15.009-19.541-23.256-14.787-4.549-15.028-4.745-12.989-10.524 3.384-9.59 5.542-10.367 28.95-10.427l16.961-.043 3.871-12.314c5.243-16.674 6.828-15.391-18.539-15.007l-21.254.321-5.255 2.912c-2.89 1.601-5.388 2.726-5.551 2.5-.164-.227-1.081-2.99-2.04-6.14-3.828-12.585-15.847-20.5-29.654-19.53-17.792 1.252-27.654 15.268-36.994 52.573-4.337 17.325-3.839 18.904 6.911 21.898 3.53.983 24.904 7.474 47.5 14.425 22.596 6.95 41.836 12.689 42.756 12.75 1.274.085 2.435-2.332 4.869-10.138z"/><path d="M122.48 466.94c-13.234-4.149-14.422-7.507-6.975-19.717 6.322-10.365 22.524-5.94 23.717 6.477 1.447 15.057-2.071 17.839-16.742 13.24z"/><path fill="#fff" d="M1086.6 492.85c22.338-10.262 24.892-31.24 8.81-72.371-5.97-15.269-1.626-14.817-37.43-3.9a89218.666 89218.666 0 0 1-49.87 15.19c-22.042 6.702-20.789 5.179-16.216 19.7 4.45 14.128 2.246 13.35 21.131 7.46 18.494-5.767 17.65-5.956 21.351 4.778 9.554 27.706 30.233 39.247 52.224 29.144z"/><path d="M1064 468.09c-6.093-2.486-13.949-16.094-11.541-19.991.937-1.516 24.829-9.085 26.57-8.416 4.325 1.66 6.348 18.32 2.811 23.145-3.77 5.142-12.106 7.601-17.84 5.262z"/><path fill="#fff" d="M227 392.03c21.79-10.547 34.766-41.919 25.535-61.731-5.84-12.533-11.198-16.893-53.368-43.423-21.655-13.623-20.236-13.211-24.318-7.064-4.915 7.401-11.362 17.886-11.362 18.478 0 .603.952 1.21 31 19.745 35.852 22.116 40.357 26.966 35.939 38.686-5.46 14.484-17.484 14.538-40.243.18-6.158-3.885-13.141-8.256-15.517-9.714-2.377-1.458-9.802-6.136-16.5-10.396-6.698-4.26-12.634-7.748-13.191-7.75-1.215-.005-14.488 21.223-14.488 23.17 0 1.28 16.614 12.035 46.409 30.04 21.476 12.979 37.168 16.042 50.106 9.78zm772.41 1.02c47.828-9.07 66.6-60.211 34.112-92.928-38.704-38.976-111.34 4.989-92.749 56.141 9.648 26.551 33.548 41.545 58.638 36.787z"/><path d="M973.67 364.49c-15.255-7.752-15.033-25.17.503-39.405 22.55-20.664 51.314-16.982 51.314 6.568 0 20.1-34.215 41.781-51.817 32.837z"/><path fill="#fff" d="M293.93 304.6c32.451-14.351 48.844-46.301 34.474-67.188-9.836-14.296-24.182-16.49-48.315-7.389-28.153 10.617-30.688-7.484-3.036-21.679 8.784-4.51 8.518-3.192 2.901-14.375-5.444-10.84-5.588-10.913-13.614-6.866-31.257 15.764-44.174 47.011-27.225 65.861 10.111 11.246 24.977 12.546 45.496 3.979 30.502-12.736 31.094 10.656.643 25.37-4.804 2.32-8.741 4.631-8.75 5.134-.04 2.192 10.27 19.585 11.61 19.585.174 0 2.791-1.094 5.816-2.432zm626.96-28.81c41.849-51.576 45.583-56.274 45.59-57.359.004-.61-4.562-4.848-10.147-9.42l-10.154-8.31-2.596 2.99c-1.428 1.645-7.045 8.47-12.484 15.17-5.439 6.698-10.389 12.172-11 12.164-1.31-.017-26.959-20.57-27.44-21.988-.18-.533 5.138-7.745 11.82-16.026 6.68-8.281 12.003-15.44 11.828-15.91-.175-.47-4.81-4.501-10.298-8.96l-9.978-8.105-2.686 2.752c-4.995 5.12-64.858 79.715-64.858 80.82 0 1.319 18.797 16.432 20.437 16.432 1.035 0 9.012-9.327 21.563-25.211 2.475-3.132 5.233-5.716 6.128-5.742 1.69-.05 27.872 20.609 27.872 21.99 0 .432-5.905 8.065-13.124 16.964-11.67 14.389-12.958 16.345-11.622 17.68 3.696 3.697 18.366 15.2 19.453 15.257.664.034 10.427-11.301 21.695-25.188zm-520.9-47.84c6.321-3.349 11.493-6.715 11.493-7.48 0-.766-8.325-17.172-18.5-36.459-10.175-19.286-18.5-35.832-18.499-36.769 0-1.148 3.58-3.598 10.979-7.515 6.038-3.196 11.242-6.238 11.565-6.76 1.12-1.812-8.925-19.429-11.077-19.429-2.297 0-73.468 37.428-73.468 38.636 0 1.949 10.298 19.864 11.418 19.864.682 0 5.8-2.51 11.376-5.58 13.346-7.347 11.452-8.738 26.643 19.58a28005.767 28005.767 0 0 0 17.724 33c2.52 4.675 5.326 9.963 6.236 11.75 2.052 4.031.586 4.326 14.11-2.838zm400.95-13.82c21.956-10.809 22.36-33.672.994-56.246-10.515-11.109-13.085-15.2-12.074-19.225 2.173-8.66 16.388-5.995 30.845 5.782l5.614 4.573 6.58-7.955c8.026-9.7 8.023-9.596.47-15.53-26.903-21.137-59.085-20.312-69.783 1.789-6.677 13.793-2.375 26.244 15.363 44.47 13.16 13.52 13.296 22.249.347 22.247-7.085-.001-29.816-13.026-29.816-17.085 0-3.198-4.275.2-9.785 7.776l-6.286 8.641 3.286 3.435c16.93 17.7 47.01 25.813 64.246 17.328zm-303.18-24.16c17.725-4.434 32.653-8.483 33.174-8.997 1.283-1.267-3.257-19.93-5.011-20.603-.738-.284-9.879 1.611-20.313 4.21-22.532 5.612-21.27 5.881-24.03-5.125-2.76-11.01-3.763-10.135 17.657-15.41 12.224-3.012 17.25-4.663 17.25-5.667 0-2.257-4.202-18.761-5.006-19.662-.4-.45-8.763 1.234-18.584 3.742-20.48 5.23-19.313 5.488-21.83-4.838-1.984-8.14-1.503-9.064 5.443-10.468 6.523-1.318 28.118-7.007 30.606-8.063l2.13-.903-2.359-9.756c-1.297-5.365-2.752-10.149-3.234-10.63-.5-.501-12.819 2.118-28.77 6.118-15.344 3.846-29.56 7.292-31.594 7.656-7.924 1.418-7.99-.52 1.193 35.54 4.54 17.83 8.85 34.894 9.579 37.919 8.088 33.596 7.909 33 9.918 33 .855 0 16.057-3.628 33.78-8.062zm128.62-15.27c42.704-13.457 50.672-79.441 11.885-98.43-14.2-6.952-68.057-11.456-71.445-5.975-.322.522-.978 13.615-1.456 29.096-.478 15.48-1.317 38.706-1.864 51.61-.547 12.906-.635 23.824-.195 24.264 3.765 3.765 50.668 3.346 63.074-.564z"/><path d="M591.94 155.97c-.7-1.132 1.255-59.773 2.126-63.8.81-3.742 16.54-2.832 24.38 1.41 22.77 12.322 18.476 54.606-6.292 61.962-5.813 1.726-19.236 2.01-20.214.428z"/></svg>